<svg preserveAspectRatio="none" overflow="visible" style="display: block;" width="20" height="20" viewBox="0 0 20 20" fill="none" xmlns="http://www.w3.org/2000/svg">
<g id="icon/nav-community">
<path id="Vector" d="M4.16667 5H12.5C13.163 5 13.7989 5.26339 14.2678 5.73223C14.7366 6.20107 15 6.83696 15 7.5V10.8333C15 11.4964 14.7366 12.1323 14.2678 12.6011C13.7989 13.0699 13.163 13.3333 12.5 13.3333H7.5L4.16667 15.8333V13.3333C3.65544 13.1536 3.21646 12.8125 2.91586 12.3616C2.61526 11.9107 2.46931 11.3744 2.5 10.8333V7.5C2.46931 6.95895 2.61526 6.42259 2.91586 5.97169C3.21646 5.52079 3.65544 5.17977 4.16667 5Z" fill="#E6F5E9" stroke="#18734A" stroke-width="1.41667" stroke-linejoin="round"/>
<path id="Vector_2" d="M6.66667 10C7.1269 10 7.5 9.6269 7.5 9.16667C7.5 8.70643 7.1269 8.33333 6.66667 8.33333C6.20643 8.33333 5.83333 8.70643 5.83333 9.16667C5.83333 9.6269 6.20643 10 6.66667 10Z" fill="#18734A"/>
<path id="Vector_3" d="M10 10C10.4602 10 10.8333 9.6269 10.8333 9.16667C10.8333 8.70643 10.4602 8.33333 10 8.33333C9.53976 8.33333 9.16667 8.70643 9.16667 9.16667C9.16667 9.6269 9.53976 10 10 10Z" fill="#18734A"/>
<path id="Vector_4" d="M13.3333 10C13.7936 10 14.1667 9.6269 14.1667 9.16667C14.1667 8.70643 13.7936 8.33333 13.3333 8.33333C12.8731 8.33333 12.5 8.70643 12.5 9.16667C12.5 9.6269 12.8731 10 13.3333 10Z" fill="#E47B16"/>
</g>
</svg>
