<svg preserveAspectRatio="none" overflow="visible" style="display: block;" width="20" height="13" viewBox="0 0 20 13" fill="none" xmlns="http://www.w3.org/2000/svg">
<path id="Vector" d="M20 2.16694C20 3.35806 19.1818 4.33306 18.1823 4.33306C18.0186 4.33306 17.8638 4.31194 17.7186 4.2575L14.482 8.10306C14.5277 8.27694 14.5454 8.47194 14.5454 8.66694C14.5454 9.85806 13.7272 10.8331 12.7276 10.8331C12.2459 10.8313 11.7843 10.6026 11.4436 10.1968C11.103 9.79094 10.9108 9.24098 10.9092 8.66694C10.9092 8.47194 10.9276 8.27694 10.9726 8.10306L8.65442 5.34056C8.50098 5.3939 8.34172 5.41964 8.18191 5.41694C8.01827 5.41694 7.85463 5.395 7.70941 5.34056L3.57277 10.2806C3.61845 10.4544 3.63618 10.6381 3.63618 10.8331C3.63618 12.025 2.81799 13 1.81843 13C1.33659 12.9983 0.874906 12.7694 0.534195 12.3634C0.193485 11.9574 0.00143886 11.4072 0 10.8331C0 9.64194 0.818191 8.66694 1.81843 8.66694C1.98207 8.66694 2.13616 8.68806 2.28207 8.7425L6.42757 3.81306C6.38281 3.63022 6.36121 3.44044 6.36348 3.25C6.36348 2.05806 7.18167 1.08306 8.18191 1.08306C9.18215 1.08306 10.0003 2.05806 10.0003 3.25C10.0003 3.445 9.98193 3.64 9.93625 3.81306L12.2545 6.57556C12.4004 6.52194 12.564 6.5 12.7276 6.5C12.8913 6.5 13.0549 6.52194 13.2001 6.57556L16.4272 2.71944C16.3827 2.54017 16.3613 2.35387 16.3638 2.16694C16.3638 0.975 17.182 0 18.1823 0C19.1818 0 20 0.975 20 2.16694Z" fill="#18734A"/>
</svg>
